solid OpenSCAD_Model
  facet normal -1 0 0
    outer loop
      vertex -40 -30 -3.5
      vertex -40 30 3.5
      vertex -40 30 -3.5
    endloop
  endfacet
  facet normal -1 -0 0
    outer loop
      vertex -40 30 3.5
      vertex -40 -30 -3.5
      vertex -40 -30 3.5
    endloop
  endfacet
  facet normal 0 0 1
    outer loop
      vertex 40 30 3.5
      vertex 19 17.5 3.5
      vertex 40 -30 3.5
    endloop
  endfacet
  facet normal 0 0 1
    outer loop
      vertex 40 30 3.5
      vertex -19 17.5 3.5
      vertex 19 17.5 3.5
    endloop
  endfacet
  facet normal 0 0 1
    outer loop
      vertex -19 17.5 3.5
      vertex -40 30 3.5
      vertex -19 -17.5 3.5
    endloop
  endfacet
  facet normal -0 0 1
    outer loop
      vertex -40 30 3.5
      vertex -19 17.5 3.5
      vertex 40 30 3.5
    endloop
  endfacet
  facet normal -0 0 1
    outer loop
      vertex 19 -17.5 3.5
      vertex 40 -30 3.5
      vertex 19 17.5 3.5
    endloop
  endfacet
  facet normal -0 0 1
    outer loop
      vertex -19 -17.5 3.5
      vertex 40 -30 3.5
      vertex 19 -17.5 3.5
    endloop
  endfacet
  facet normal 0 0 1
    outer loop
      vertex -19 -17.5 3.5
      vertex -40 -30 3.5
      vertex 40 -30 3.5
    endloop
  endfacet
  facet normal 0 0 1
    outer loop
      vertex -40 -30 3.5
      vertex -19 -17.5 3.5
      vertex -40 30 3.5
    endloop
  endfacet
  facet normal 1 -0 0
    outer loop
      vertex 40 -30 3.5
      vertex 40 30 -3.5
      vertex 40 30 3.5
    endloop
  endfacet
  facet normal 1 0 0
    outer loop
      vertex 40 30 -3.5
      vertex 40 -30 3.5
      vertex 40 -30 -3.5
    endloop
  endfacet
  facet normal 0 1 -0
    outer loop
      vertex 40 30 -3.5
      vertex -40 30 3.5
      vertex 40 30 3.5
    endloop
  endfacet
  facet normal 0 1 0
    outer loop
      vertex -40 30 3.5
      vertex 40 30 -3.5
      vertex -40 30 -3.5
    endloop
  endfacet
  facet normal 0 0 -1
    outer loop
      vertex -40 -30 -3.5
      vertex 40 30 -3.5
      vertex 40 -30 -3.5
    endloop
  endfacet
  facet normal -0 0 -1
    outer loop
      vertex 40 30 -3.5
      vertex -40 -30 -3.5
      vertex -40 30 -3.5
    endloop
  endfacet
  facet normal 0 -1 0
    outer loop
      vertex -40 -30 -3.5
      vertex 40 -30 3.5
      vertex -40 -30 3.5
    endloop
  endfacet
  facet normal 0 -1 -0
    outer loop
      vertex 40 -30 3.5
      vertex -40 -30 -3.5
      vertex 40 -30 -3.5
    endloop
  endfacet
  facet normal 1 -0 0
    outer loop
      vertex -19 -17.5 3.5
      vertex -19 17.5 2.5
      vertex -19 17.5 3.5
    endloop
  endfacet
  facet normal 1 0 0
    outer loop
      vertex -19 17.5 2.5
      vertex -19 -17.5 3.5
      vertex -19 -17.5 2.5
    endloop
  endfacet
  facet normal -1 0 0
    outer loop
      vertex 19 -17.5 2.5
      vertex 19 17.5 3.5
      vertex 19 17.5 2.5
    endloop
  endfacet
  facet normal -1 -0 0
    outer loop
      vertex 19 17.5 3.5
      vertex 19 -17.5 2.5
      vertex 19 -17.5 3.5
    endloop
  endfacet
  facet normal -0 0 1
    outer loop
      vertex -19 17.5 2.5
      vertex 19 -17.5 2.5
      vertex 19 17.5 2.5
    endloop
  endfacet
  facet normal 0 0 1
    outer loop
      vertex 19 -17.5 2.5
      vertex -19 17.5 2.5
      vertex -19 -17.5 2.5
    endloop
  endfacet
  facet normal 0 1 -0
    outer loop
      vertex 19 -17.5 2.5
      vertex -19 -17.5 3.5
      vertex 19 -17.5 3.5
    endloop
  endfacet
  facet normal 0 1 0
    outer loop
      vertex -19 -17.5 3.5
      vertex 19 -17.5 2.5
      vertex -19 -17.5 2.5
    endloop
  endfacet
  facet normal 0 -1 0
    outer loop
      vertex -19 17.5 2.5
      vertex 19 17.5 3.5
      vertex -19 17.5 3.5
    endloop
  endfacet
  facet normal 0 -1 -0
    outer loop
      vertex 19 17.5 3.5
      vertex -19 17.5 2.5
      vertex 19 17.5 2.5
    endloop
  endfacet
endsolid OpenSCAD_Model
